<?xml version="1.0" standalone="no"?><!DOCTYPE svg PUBLIC "-//W3C//DTD SVG 1.1//EN" "http://www.w3.org/Graphics/SVG/1.1/DTD/svg11.dtd"><svg t="1741071224693" class="icon" viewBox="0 0 1024 1024" version="1.1" xmlns="http://www.w3.org/2000/svg" p-id="2839" xmlns:xlink="http://www.w3.org/1999/xlink" width="200" height="200"><path d="M55.253333 951.04c-14.72 0-28.8-5.76-39.04-16.213333A55.253333 55.253333 0 0 1 0 895.786667V88.746667c0-14.72 5.76-28.8 16.213333-39.04 10.24-10.453333 24.32-16.213333 39.04-16.213334h718.506667a55.253333 55.253333 0 0 1 55.253333 55.253334v276.266666a35.029333 35.029333 0 1 1-69.76 0V102.186667H68.266667v779.52h218.24c19.413333 0 35.2 15.786667 35.2 35.2 0 19.413333-15.786667 35.2-35.2 35.2l-231.253334-1.066667z m0 0" fill="#ffffff" p-id="2840"></path><path d="M901.546667 501.546667c34.346667 0.213333 62.506667 27.306667 64.213333 61.653333v138.24c31.573333 2.986667 56.106667 29.013333 56.96 60.8v204.8c-0.213333 11.733333-9.6 21.333333-21.333333 21.546667-10.88 0.213333-20.053333-7.893333-21.546667-18.56v-24.32H452.48v21.333333c-0.213333 11.733333-9.6 21.333333-21.333333 21.546667-10.88 0.213333-20.053333-7.893333-21.546667-18.56v-203.306667a66.005333 66.005333 0 0 1 57.173333-64.426667v-136.32a64.426667 64.426667 0 0 1 61.013334-64.426666h373.76z m56.746666 243.626666H472.32c-10.026667 0.64-17.92 8.533333-18.56 18.56v2.986667l-1.28 135.893333h527.36v-135.893333c0-10.88-7.893333-20.053333-18.56-21.546667h-2.986667z m-56.746666-200.533333H530.773333c-11.306667 0-20.693333 8.746667-21.546666 19.84v138.24h57.173333v-58.026667c-0.426667-22.613333 17.066667-41.6 39.893333-42.88h216.746667c22.613333-0.213333 41.6 17.493333 42.88 40.106667v60.16h56.96v-136.32c-0.213333-10.026667-7.253333-18.773333-17.066667-21.333333h-4.266666z m-221.226667 100.053333h-56.96c-7.253333 0.426667-13.226667 5.76-14.293333 13.013334v44.586666h85.76V659.2a14.464 14.464 0 0 0-3.84-10.453333 14.592 14.592 0 0 0-10.666667-4.053334z m128.213333 0h-56.96c-7.253333 0.426667-13.226667 5.76-14.293333 13.013334v44.586666h85.76V659.2a13.802667 13.802667 0 0 0-14.506667-14.506667z m-346.026666-161.92c-6.613333 0-12.373333-3.84-15.146667-9.6-4.053333-9.173333-11.733333-16.64-21.12-20.266666-9.386667-3.626667-20.053333-3.413333-29.226667 0.853333-8.746667 3.626667-15.573333 10.666667-19.413333 19.413333-3.626667 7.68-12.373333 11.52-20.48 8.746667-19.413333-6.826667-37.546667-17.28-53.333333-30.72a16.789333 16.789333 0 0 1-2.773334-22.4 38.101333 38.101333 0 0 0-35.626666-60.373333 16.64 16.64 0 0 1-17.92-13.44c-3.626667-20.266667-3.626667-40.96 0-61.44 1.706667-8.32 9.386667-14.08 17.92-13.226667 10.24 1.28 20.693333-1.493333 28.586666-8.106667 8.106667-6.4 13.226667-16 14.08-26.24 1.493333-9.813333-1.066667-19.84-7.253333-27.733333a16.298667 16.298667 0 0 1 2.773333-22.186667c15.573333-13.653333 33.706667-23.893333 53.333334-30.72 8.106667-2.986667 16.853333 0.853333 20.48 8.533334a38.4 38.4 0 0 0 34.773333 22.613333c15.146667 0 28.586667-8.746667 34.773333-22.613333 3.626667-7.68 12.373333-11.52 20.48-8.533334 20.266667 6.4 39.04 16.853333 55.253334 30.72 6.613333 5.546667 7.68 15.36 2.56 22.186667-6.613333 8.32-9.6 18.773333-8.106667 29.226667 1.493333 10.453333 7.04 19.84 15.573333 26.026666 8.106667 5.76 17.92 8.32 27.733334 7.253334 8.533333-0.853333 16.213333 4.906667 17.92 13.226666 3.626667 20.48 3.626667 41.173333 0 61.653334-1.706667 8.32-9.386667 14.08-17.92 13.226666-14.933333-1.706667-29.44 5.546667-37.12 18.346667-7.68 12.8-7.04 29.013333 1.493333 41.386667 5.333333 6.826667 4.266667 16.853333-2.56 22.4-15.573333 13.226667-33.493333 23.68-52.693333 30.72-1.92 0.64-4.053333 0.64-5.973334 0l-1.066666 1.066666z m-126.506667-48.213333c6.186667 4.48 12.8 8.32 19.626667 11.306667a71.381333 71.381333 0 0 1 99.84-14.08c5.333333 4.053333 10.026667 8.96 14.08 14.08 6.826667-2.986667 13.44-6.826667 19.626666-11.306667-7.68-17.066667-8.106667-36.693333-1.493333-54.186667 6.826667-17.493333 20.266667-31.573333 37.333333-39.253333 6.613333-2.773333 13.44-4.693333 20.48-5.546667v-23.04a71.488 71.488 0 0 1-53.12-35.413333c-11.093333-19.413333-12.586667-42.88-3.84-63.573333-6.186667-4.266667-12.8-7.893333-19.626666-11.306667-11.306667 15.146667-28.16 25.173333-46.933334 27.733333a72.106667 72.106667 0 0 1-52.906666-13.653333c-5.333333-4.053333-10.026667-8.96-14.08-14.08-6.826667 3.2-13.44 7.04-19.626667 11.306667 15.36 36.266667-1.493333 78.08-37.546667 93.653333-6.186667 2.773333-12.586667 4.48-19.413333 5.333333v23.04c22.186667 2.56 41.813333 15.573333 53.12 34.773334 11.306667 19.626667 13.013333 43.306667 4.053333 64.213333h0.426667z m0 0" fill="#ffffff" p-id="2841"></path><path d="M412.586667 259.626667c-24.533333-1.493333-48 10.666667-60.8 31.573333-12.8 21.12-12.8 47.36 0 68.48 12.8 21.12 36.266667 33.28 60.8 31.573333a66.837333 66.837333 0 0 0 65.706666-66.986666 65.237333 65.237333 0 0 0-65.706666-64.64z m0 97.28c-13.44 0.213333-25.6-7.893333-30.933334-20.266667-5.12-12.373333-2.346667-26.666667 7.04-36.266667 9.6-9.6 23.893333-12.373333 36.266667-7.04 12.373333 5.12 20.48 17.493333 20.266667 30.933334 0 8.746667-3.413333 17.066667-9.6 23.253333-5.973333 5.76-14.293333 9.386667-23.04 9.386667zM103.04 769.066667c0 18.986667 8.32 34.56 18.346667 35.84h165.76c9.6 0 17.493333-16.64 18.346666-35.84 0.853333-19.413333-8.533333-34.56-18.56-35.84H121.386667c-9.813333 1.28-17.706667 16.64-18.346667 35.84z m0-179.84c1.706667 19.84 17.706667 35.2 37.546667 35.84h263.893333c13.44 1.28 26.666667-5.333333 33.706667-16.853334 7.04-11.52 7.04-26.24 0-37.76s-20.266667-18.133333-33.706667-16.853333H140.586667c-19.626667 0.64-35.626667 16-37.546667 35.626667z m0 0" fill="#ffffff" p-id="2842"></path></svg>